<mxfile host="65bd71144e">
    <diagram id="B2YOq591DK39uhJwRHPZ" name="Page-1">
        <mxGraphModel dx="1132" dy="899" grid="1" gridSize="10" guides="1" tooltips="1" connect="1" arrows="1" fold="1" page="1" pageScale="1" pageWidth="1654" pageHeight="1169" math="0" shadow="0">
            <root>
                <mxCell id="0"/>
                <mxCell id="1" parent="0"/>
                <mxCell id="mUY1YjeQh6jDa4FhmZbv-118" value="valid board input /&lt;br&gt;some entries incorrect" style="edgeStyle=orthogonalEdgeStyle;html=1;verticalAlign=bottom;endArrow=none;endSize=8;strokeColor=#ff0000;exitX=1;exitY=0.5;exitDx=0;exitDy=0;endFill=0;spacingBottom=-40;" edge="1" parent="1" source="mUY1YjeQh6jDa4FhmZbv-113">
                    <mxGeometry relative="1" as="geometry">
                        <mxPoint x="590" y="380" as="targetPoint"/>
                        <mxPoint x="90" y="190" as="sourcePoint"/>
                    </mxGeometry>
                </mxCell>
                <mxCell id="6" value="" style="ellipse;html=1;shape=startState;fillColor=#000000;strokeColor=#ff0000;" parent="1" vertex="1">
                    <mxGeometry x="180" y="30" width="30" height="30" as="geometry"/>
                </mxCell>
                <mxCell id="7" value="Start Application" style="edgeStyle=orthogonalEdgeStyle;html=1;verticalAlign=bottom;endArrow=open;endSize=8;strokeColor=#ff0000;entryX=0.5;entryY=0;entryDx=0;entryDy=0;exitX=0.5;exitY=1;exitDx=0;exitDy=0;" parent="1" source="6" target="mUY1YjeQh6jDa4FhmZbv-37" edge="1">
                    <mxGeometry relative="1" as="geometry">
                        <mxPoint x="90" y="161" as="targetPoint"/>
                        <mxPoint x="50" y="71" as="sourcePoint"/>
                    </mxGeometry>
                </mxCell>
                <mxCell id="mUY1YjeQh6jDa4FhmZbv-37" value="Initial window" style="swimlane;whiteSpace=wrap;html=1;strokeColor=#FF0000;fillColor=#FFFFC0;movable=1;resizable=1;rotatable=1;deletable=1;editable=1;connectable=1;" vertex="1" parent="1">
                    <mxGeometry x="30" y="120" width="330" height="480" as="geometry">
                        <mxRectangle x="70" y="100" width="140" height="30" as="alternateBounds"/>
                    </mxGeometry>
                </mxCell>
                <mxCell id="8" value="Startup screen" style="rounded=1;whiteSpace=wrap;html=1;arcSize=40;fontColor=#000000;fillColor=#ffffc0;strokeColor=#ff0000;" parent="mUY1YjeQh6jDa4FhmZbv-37" vertex="1">
                    <mxGeometry x="105" y="40" width="120" height="40" as="geometry"/>
                </mxCell>
                <mxCell id="mUY1YjeQh6jDa4FhmZbv-39" value="" style="ellipse;html=1;shape=startState;fillColor=#000000;strokeColor=#ff0000;" vertex="1" parent="mUY1YjeQh6jDa4FhmZbv-37">
                    <mxGeometry x="20" y="45" width="30" height="30" as="geometry"/>
                </mxCell>
                <mxCell id="mUY1YjeQh6jDa4FhmZbv-35" value="Choose Waffle popup" style="shape=umlFrame;whiteSpace=wrap;html=1;width=140;height=30;strokeColor=#FF0000;fillColor=#FFFFC0;" vertex="1" parent="mUY1YjeQh6jDa4FhmZbv-37">
                    <mxGeometry x="10" y="150" width="310" height="320" as="geometry"/>
                </mxCell>
                <mxCell id="mUY1YjeQh6jDa4FhmZbv-42" value="" style="edgeStyle=orthogonalEdgeStyle;html=1;verticalAlign=bottom;endArrow=open;endSize=8;strokeColor=#ff0000;entryX=0;entryY=0.5;entryDx=0;entryDy=0;exitX=1;exitY=0.5;exitDx=0;exitDy=0;" edge="1" parent="mUY1YjeQh6jDa4FhmZbv-37" source="mUY1YjeQh6jDa4FhmZbv-39" target="8">
                    <mxGeometry relative="1" as="geometry">
                        <mxPoint x="220.0000000000001" y="10" as="targetPoint"/>
                        <mxPoint x="9.999999999996248" y="-35" as="sourcePoint"/>
                    </mxGeometry>
                </mxCell>
                <mxCell id="mUY1YjeQh6jDa4FhmZbv-43" value="Click button" style="edgeStyle=orthogonalEdgeStyle;html=1;verticalAlign=bottom;endArrow=open;endSize=8;strokeColor=#ff0000;exitX=0.5;exitY=1;exitDx=0;exitDy=0;" edge="1" parent="mUY1YjeQh6jDa4FhmZbv-37" source="8" target="mUY1YjeQh6jDa4FhmZbv-35">
                    <mxGeometry relative="1" as="geometry">
                        <mxPoint x="110" y="70" as="targetPoint"/>
                        <mxPoint x="59.99999999999625" y="70" as="sourcePoint"/>
                    </mxGeometry>
                </mxCell>
                <mxCell id="mUY1YjeQh6jDa4FhmZbv-46" value="" style="ellipse;html=1;shape=startState;fillColor=#000000;strokeColor=#ff0000;" vertex="1" parent="mUY1YjeQh6jDa4FhmZbv-37">
                    <mxGeometry x="50" y="240" width="30" height="30" as="geometry"/>
                </mxCell>
                <mxCell id="mUY1YjeQh6jDa4FhmZbv-74" value="" style="edgeStyle=orthogonalEdgeStyle;html=1;align=left;verticalAlign=bottom;endArrow=open;endSize=8;strokeColor=#ff0000;entryX=0;entryY=0.5;entryDx=0;entryDy=0;exitX=1;exitY=0.5;exitDx=0;exitDy=0;" edge="1" parent="mUY1YjeQh6jDa4FhmZbv-37" source="mUY1YjeQh6jDa4FhmZbv-46" target="mUY1YjeQh6jDa4FhmZbv-82">
                    <mxGeometry x="-1" y="5" relative="1" as="geometry">
                        <mxPoint x="109.30999999999995" y="350.68000000000006" as="targetPoint"/>
                        <mxPoint x="190" y="234.9999999999999" as="sourcePoint"/>
                        <mxPoint as="offset"/>
                    </mxGeometry>
                </mxCell>
                <mxCell id="mUY1YjeQh6jDa4FhmZbv-82" value="Existing Waffle flow" style="swimlane;horizontal=0;whiteSpace=wrap;html=1;strokeColor=#FF0000;fillColor=#FFFFC0;" vertex="1" parent="mUY1YjeQh6jDa4FhmZbv-37">
                    <mxGeometry x="120" y="190" width="190" height="130" as="geometry"/>
                </mxCell>
                <mxCell id="mUY1YjeQh6jDa4FhmZbv-75" value="Existing screen" style="rounded=1;whiteSpace=wrap;html=1;arcSize=40;fontColor=#000000;fillColor=#ffffc0;strokeColor=#ff0000;" vertex="1" parent="mUY1YjeQh6jDa4FhmZbv-82">
                    <mxGeometry x="50" y="45" width="100" height="40" as="geometry"/>
                </mxCell>
                <mxCell id="mUY1YjeQh6jDa4FhmZbv-101" value="Change #" style="edgeStyle=orthogonalEdgeStyle;html=1;align=left;verticalAlign=bottom;endArrow=open;endSize=8;strokeColor=#ff0000;entryX=0.25;entryY=0;entryDx=0;entryDy=0;exitX=0.75;exitY=0;exitDx=0;exitDy=0;spacing=0;spacingLeft=-3;" edge="1" parent="mUY1YjeQh6jDa4FhmZbv-82" source="mUY1YjeQh6jDa4FhmZbv-75" target="mUY1YjeQh6jDa4FhmZbv-75">
                    <mxGeometry x="0.7" y="5" relative="1" as="geometry">
                        <mxPoint x="60" y="70" as="targetPoint"/>
                        <mxPoint x="30" y="70" as="sourcePoint"/>
                        <mxPoint as="offset"/>
                        <Array as="points">
                            <mxPoint x="125" y="20"/>
                            <mxPoint x="75" y="20"/>
                        </Array>
                    </mxGeometry>
                </mxCell>
                <mxCell id="mUY1YjeQh6jDa4FhmZbv-85" value="Custom Waffle flow" style="swimlane;horizontal=0;whiteSpace=wrap;html=1;strokeColor=#FF0000;fillColor=#FFFFC0;" vertex="1" parent="mUY1YjeQh6jDa4FhmZbv-37">
                    <mxGeometry x="120" y="320" width="190" height="130" as="geometry"/>
                </mxCell>
                <mxCell id="mUY1YjeQh6jDa4FhmZbv-87" value="Custom screen" style="rounded=1;whiteSpace=wrap;html=1;arcSize=40;fontColor=#000000;fillColor=#ffffc0;strokeColor=#ff0000;" vertex="1" parent="mUY1YjeQh6jDa4FhmZbv-37">
                    <mxGeometry x="170" y="365" width="100" height="40" as="geometry"/>
                </mxCell>
                <mxCell id="mUY1YjeQh6jDa4FhmZbv-103" value="&amp;nbsp;Change mode&amp;nbsp;" style="edgeStyle=orthogonalEdgeStyle;html=1;align=left;verticalAlign=bottom;endArrow=open;endSize=8;strokeColor=#ff0000;entryX=0.5;entryY=0;entryDx=0;entryDy=0;exitX=0.5;exitY=1;exitDx=0;exitDy=0;startArrow=open;startFill=0;" edge="1" parent="mUY1YjeQh6jDa4FhmZbv-37" source="mUY1YjeQh6jDa4FhmZbv-75" target="mUY1YjeQh6jDa4FhmZbv-87">
                    <mxGeometry x="0.2" y="-40" relative="1" as="geometry">
                        <mxPoint x="130" y="264.9999999999999" as="targetPoint"/>
                        <mxPoint x="89.9999999999967" y="264.9999999999999" as="sourcePoint"/>
                        <mxPoint as="offset"/>
                    </mxGeometry>
                </mxCell>
                <mxCell id="mUY1YjeQh6jDa4FhmZbv-105" value="Close popup" style="edgeStyle=orthogonalEdgeStyle;html=1;verticalAlign=bottom;endArrow=open;endSize=8;strokeColor=#ff0000;entryX=1;entryY=0.5;entryDx=0;entryDy=0;exitX=0.935;exitY=0.001;exitDx=0;exitDy=0;exitPerimeter=0;" edge="1" parent="mUY1YjeQh6jDa4FhmZbv-37" source="mUY1YjeQh6jDa4FhmZbv-35" target="8">
                    <mxGeometry x="-0.5118" y="30" relative="1" as="geometry">
                        <mxPoint x="115" y="70" as="targetPoint"/>
                        <mxPoint x="60" y="70" as="sourcePoint"/>
                        <mxPoint as="offset"/>
                    </mxGeometry>
                </mxCell>
                <mxCell id="mUY1YjeQh6jDa4FhmZbv-59" value="Edit Waffle" style="swimlane;whiteSpace=wrap;html=1;strokeColor=#FF0000;fillColor=#FFFFC0;" vertex="1" parent="1">
                    <mxGeometry x="30" y="660" width="440" height="370" as="geometry"/>
                </mxCell>
                <mxCell id="mUY1YjeQh6jDa4FhmZbv-122" value="" style="ellipse;html=1;shape=startState;fillColor=#000000;strokeColor=#ff0000;" vertex="1" parent="mUY1YjeQh6jDa4FhmZbv-59">
                    <mxGeometry x="20" y="40" width="30" height="30" as="geometry"/>
                </mxCell>
                <mxCell id="mUY1YjeQh6jDa4FhmZbv-123" value="Startup screen" style="rounded=1;whiteSpace=wrap;html=1;arcSize=40;fontColor=#000000;fillColor=#ffffc0;strokeColor=#ff0000;" vertex="1" parent="mUY1YjeQh6jDa4FhmZbv-59">
                    <mxGeometry x="110" y="35" width="120" height="40" as="geometry"/>
                </mxCell>
                <mxCell id="mUY1YjeQh6jDa4FhmZbv-60" value="Waffle Solver" style="swimlane;whiteSpace=wrap;html=1;strokeColor=#FF0000;fillColor=#FFFFC0;" vertex="1" parent="1">
                    <mxGeometry x="660" y="120" width="800" height="510" as="geometry"/>
                </mxCell>
                <mxCell id="mUY1YjeQh6jDa4FhmZbv-106" value="valid Waffle #" style="rhombus;whiteSpace=wrap;html=1;fillColor=#ffffc0;strokeColor=#ff0000;" vertex="1" parent="1">
                    <mxGeometry x="400" y="355" width="120" height="40" as="geometry"/>
                </mxCell>
                <mxCell id="mUY1YjeQh6jDa4FhmZbv-110" value="Submit choice" style="edgeStyle=orthogonalEdgeStyle;html=1;align=left;verticalAlign=bottom;endArrow=open;endSize=8;strokeColor=#ff0000;entryX=0;entryY=0.5;entryDx=0;entryDy=0;exitX=1;exitY=0.5;exitDx=0;exitDy=0;spacing=-2;spacingLeft=-3;" edge="1" parent="1" source="mUY1YjeQh6jDa4FhmZbv-75" target="mUY1YjeQh6jDa4FhmZbv-106">
                    <mxGeometry x="-0.6364" y="-5" relative="1" as="geometry">
                        <mxPoint x="160" y="385" as="targetPoint"/>
                        <mxPoint x="120" y="385" as="sourcePoint"/>
                        <mxPoint as="offset"/>
                    </mxGeometry>
                </mxCell>
                <mxCell id="mUY1YjeQh6jDa4FhmZbv-111" value="No / Error in GET" style="edgeStyle=orthogonalEdgeStyle;html=1;align=left;verticalAlign=bottom;endArrow=open;endSize=8;strokeColor=#ff0000;entryX=0.75;entryY=1;entryDx=0;entryDy=0;exitX=0.5;exitY=1;exitDx=0;exitDy=0;spacing=-2;spacingRight=7;spacingLeft=17;" edge="1" parent="1" source="mUY1YjeQh6jDa4FhmZbv-106" target="mUY1YjeQh6jDa4FhmZbv-75">
                    <mxGeometry x="0.4762" y="5" relative="1" as="geometry">
                        <mxPoint x="235" y="365" as="targetPoint"/>
                        <mxPoint x="285" y="365" as="sourcePoint"/>
                        <mxPoint as="offset"/>
                        <Array as="points">
                            <mxPoint x="458" y="420"/>
                            <mxPoint x="275" y="420"/>
                        </Array>
                    </mxGeometry>
                </mxCell>
                <mxCell id="mUY1YjeQh6jDa4FhmZbv-113" value="File explorer" style="rounded=1;whiteSpace=wrap;html=1;arcSize=40;fontColor=#000000;fillColor=#ffffc0;strokeColor=#ff0000;" vertex="1" parent="1">
                    <mxGeometry x="400" y="485" width="110" height="40" as="geometry"/>
                </mxCell>
                <mxCell id="mUY1YjeQh6jDa4FhmZbv-116" value="Initialise board" style="edgeStyle=orthogonalEdgeStyle;html=1;verticalAlign=bottom;endArrow=open;endSize=8;strokeColor=#ff0000;entryX=0;entryY=0.5;entryDx=0;entryDy=0;exitX=1;exitY=0.5;exitDx=0;exitDy=0;spacingBottom=-5;spacingLeft=5;" edge="1" parent="1" source="mUY1YjeQh6jDa4FhmZbv-106" target="mUY1YjeQh6jDa4FhmZbv-60">
                    <mxGeometry x="-0.0769" y="-5" relative="1" as="geometry">
                        <mxPoint x="422.5700000000002" y="210.0000000000001" as="targetPoint"/>
                        <mxPoint x="497.4199999999999" y="300.31999999999994" as="sourcePoint"/>
                        <mxPoint as="offset"/>
                    </mxGeometry>
                </mxCell>
                <mxCell id="mUY1YjeQh6jDa4FhmZbv-117" value="Choose file" style="edgeStyle=orthogonalEdgeStyle;html=1;verticalAlign=bottom;endArrow=open;endSize=8;strokeColor=#ff0000;entryX=0;entryY=0.5;entryDx=0;entryDy=0;exitX=1;exitY=0.5;exitDx=0;exitDy=0;spacingBottom=-9;spacingLeft=-2;" edge="1" parent="1" source="mUY1YjeQh6jDa4FhmZbv-87" target="mUY1YjeQh6jDa4FhmZbv-113">
                    <mxGeometry relative="1" as="geometry">
                        <mxPoint x="145" y="190" as="targetPoint"/>
                        <mxPoint x="89.9999999999967" y="190" as="sourcePoint"/>
                    </mxGeometry>
                </mxCell>
                <mxCell id="mUY1YjeQh6jDa4FhmZbv-119" value="Unsupported file format" style="edgeStyle=orthogonalEdgeStyle;html=1;verticalAlign=bottom;endArrow=open;endSize=8;strokeColor=#ff0000;entryX=0.75;entryY=1;entryDx=0;entryDy=0;exitX=0.5;exitY=1;exitDx=0;exitDy=0;spacingBottom=-10;" edge="1" parent="1" source="mUY1YjeQh6jDa4FhmZbv-113" target="mUY1YjeQh6jDa4FhmZbv-87">
                    <mxGeometry relative="1" as="geometry">
                        <mxPoint x="145" y="190" as="targetPoint"/>
                        <mxPoint x="90" y="190" as="sourcePoint"/>
                        <Array as="points">
                            <mxPoint x="455" y="540"/>
                            <mxPoint x="275" y="540"/>
                        </Array>
                    </mxGeometry>
                </mxCell>
                <mxCell id="mUY1YjeQh6jDa4FhmZbv-120" value="Input board" style="edgeStyle=orthogonalEdgeStyle;html=1;verticalAlign=bottom;endArrow=open;endSize=8;strokeColor=#ff0000;entryX=0.5;entryY=0;entryDx=0;entryDy=0;exitX=0.5;exitY=1;exitDx=0;exitDy=0;spacingBottom=-12;" edge="1" parent="1" source="mUY1YjeQh6jDa4FhmZbv-87" target="mUY1YjeQh6jDa4FhmZbv-59">
                    <mxGeometry relative="1" as="geometry">
                        <mxPoint x="145" y="190" as="targetPoint"/>
                        <mxPoint x="90" y="190" as="sourcePoint"/>
                    </mxGeometry>
                </mxCell>
            </root>
        </mxGraphModel>
    </diagram>
</mxfile>